<?xml version="1.0" encoding="UTF-8"?>
<!DOCTYPE svg PUBLIC "-//W3C//DTD SVG 1.1//EN" "http://www.w3.org/Graphics/SVG/1.1/DTD/svg11.dtd">
<svg xmlns="http://www.w3.org/2000/svg" version="1.1" width="771px" height="198px" style="shape-rendering:geometricPrecision; text-rendering:geometricPrecision; image-rendering:optimizeQuality; fill-rule:evenodd; clip-rule:evenodd" xmlns:xlink="http://www.w3.org/1999/xlink">
<g><path style="opacity:1" fill="#2b2a29" d="M -0.5,-0.5 C 256.5,-0.5 513.5,-0.5 770.5,-0.5C 770.5,65.5 770.5,131.5 770.5,197.5C 513.5,197.5 256.5,197.5 -0.5,197.5C -0.5,131.5 -0.5,65.5 -0.5,-0.5 Z"/></g>
<g><path style="opacity:1" fill="#ad8e0f" d="M 260.5,29.5 C 254.5,29.5 248.5,29.5 242.5,29.5C 242.5,61.1667 242.5,92.8333 242.5,124.5C 248.5,124.5 254.5,124.5 260.5,124.5C 254.355,125.49 248.022,125.823 241.5,125.5C 241.5,93.1667 241.5,60.8333 241.5,28.5C 248.022,28.1765 254.355,28.5098 260.5,29.5 Z"/></g>
<g><path style="opacity:1" fill="#fdcc00" d="M 260.5,29.5 C 260.5,61.1667 260.5,92.8333 260.5,124.5C 254.5,124.5 248.5,124.5 242.5,124.5C 242.5,92.8333 242.5,61.1667 242.5,29.5C 248.5,29.5 254.5,29.5 260.5,29.5 Z"/></g>
<g><path style="opacity:1" fill="#4d4c4b" d="M 74.5,36.5 C 72.9557,36.7031 71.6223,37.3698 70.5,38.5C 65.472,46.1736 60.1387,53.5069 54.5,60.5C 53.5084,60.6716 52.8417,60.3382 52.5,59.5C 52.334,54.1563 52.5006,48.8229 53,43.5C 53.8281,37.1137 57.3281,33.447 63.5,32.5C 67.5418,33.0306 71.2084,34.3639 74.5,36.5 Z"/></g>
<g><path style="opacity:1" fill="#e6e7e7" d="M 727.5,39.5 C 729.465,46.7605 730.132,54.4271 729.5,62.5C 736.167,62.5 742.833,62.5 749.5,62.5C 749.5,67.1667 749.5,71.8333 749.5,76.5C 742.978,76.1765 736.645,76.5098 730.5,77.5C 730.334,87.1724 730.5,96.8391 731,106.5C 731.833,108.667 733.333,110.167 735.5,111C 740.838,111.879 746.004,111.379 751,109.5C 751.499,114.489 751.666,119.489 751.5,124.5C 742.939,126.416 734.272,126.916 725.5,126C 717.227,123.062 712.727,117.229 712,108.5C 711.5,98.172 711.334,87.8387 711.5,77.5C 708.167,77.5 704.833,77.5 701.5,77.5C 701.5,72.1667 701.5,66.8333 701.5,61.5C 704.833,61.5 708.167,61.5 711.5,61.5C 711.334,55.4908 711.501,49.4908 712,43.5C 716.979,41.475 722.146,40.1416 727.5,39.5 Z"/></g>
<g><path style="opacity:1" fill="#676665" d="M 74.5,36.5 C 77.5113,37.6693 80.178,39.336 82.5,41.5C 81.325,41.281 80.325,41.6143 79.5,42.5C 75,49.5 70.5,56.5 66,63.5C 65.1841,64.8228 64.0174,65.4894 62.5,65.5C 59.7972,63.8193 57.1305,62.1526 54.5,60.5C 60.1387,53.5069 65.472,46.1736 70.5,38.5C 71.6223,37.3698 72.9557,36.7031 74.5,36.5 Z"/></g>
<g><path style="opacity:1" fill="#7f7f7e" d="M 82.5,41.5 C 85.7598,42.7738 88.7598,44.4405 91.5,46.5C 89.0901,46.9209 87.2568,48.2542 86,50.5C 81.6708,57.6519 77.1708,64.6519 72.5,71.5C 70.7162,71.1075 69.0495,70.4408 67.5,69.5C 66.3406,67.7497 64.674,66.7497 62.5,66.5C 62.5,66.1667 62.5,65.8333 62.5,65.5C 64.0174,65.4894 65.1841,64.8228 66,63.5C 70.5,56.5 75,49.5 79.5,42.5C 80.325,41.6143 81.325,41.281 82.5,41.5 Z"/></g>
<g><path style="opacity:1" fill="#979897" d="M 91.5,46.5 C 94.0041,47.5839 96.3374,48.9172 98.5,50.5C 92.4035,59.2561 86.7368,68.2561 81.5,77.5C 78.2911,75.7349 75.2911,73.7349 72.5,71.5C 77.1708,64.6519 81.6708,57.6519 86,50.5C 87.2568,48.2542 89.0901,46.9209 91.5,46.5 Z"/></g>
<g><path style="opacity:1" fill="#b0b0b0" d="M 98.5,50.5 C 102.118,52.1373 105.451,54.1373 108.5,56.5C 106.09,56.9209 104.257,58.2542 103,60.5C 98.4894,67.5283 93.9894,74.5283 89.5,81.5C 86.8599,80.1799 84.1932,78.8466 81.5,77.5C 86.7368,68.2561 92.4035,59.2561 98.5,50.5 Z"/></g>
<g><path style="opacity:1" fill="#e1b506" d="M 52.5,59.5 C 52.8417,60.3382 53.5084,60.6716 54.5,60.5C 57.1305,62.1526 59.7972,63.8193 62.5,65.5C 62.5,65.8333 62.5,66.1667 62.5,66.5C 49.6774,67.4955 36.6774,67.8288 23.5,67.5C 23.5,64.5 23.5,61.5 23.5,58.5C 24.6819,53.2328 28.0152,50.8995 33.5,51.5C 35.1667,51.6667 36.8333,51.8333 38.5,52C 43.0346,54.767 47.7013,57.267 52.5,59.5 Z"/></g>
<g><path style="opacity:1" fill="#c8c9c9" d="M 108.5,56.5 C 111.54,57.6803 114.206,59.347 116.5,61.5C 115.504,61.4142 114.671,61.7476 114,62.5C 108.563,70.3865 103.396,78.3865 98.5,86.5C 95.0078,85.5903 92.0078,83.9236 89.5,81.5C 93.9894,74.5283 98.4894,67.5283 103,60.5C 104.257,58.2542 106.09,56.9209 108.5,56.5 Z"/></g>
<g><path style="opacity:1" fill="#fac901" d="M 183.5,153.5 C 177.5,153.5 171.5,153.5 165.5,153.5C 165.5,131.167 165.5,108.833 165.5,86.5C 168.206,72.6264 176.539,64.1264 190.5,61C 209.475,57.5277 223.642,64.0277 233,80.5C 239.7,104.616 231.2,120.116 207.5,127C 199.423,127.685 191.423,127.185 183.5,125.5C 183.5,134.833 183.5,144.167 183.5,153.5 Z"/></g>
<g><path style="opacity:1" fill="#e6e7e7" d="M 438.5,60.5 C 457.709,57.176 470.543,64.5094 477,82.5C 477.687,88.2037 477.521,93.8704 476.5,99.5C 461.833,99.5 447.167,99.5 432.5,99.5C 433.881,105.384 437.547,109.217 443.5,111C 453.445,113.323 463.112,112.49 472.5,108.5C 473.494,113.456 473.827,118.456 473.5,123.5C 462.027,126.394 450.36,127.227 438.5,126C 421.786,121.067 413.453,109.9 413.5,92.5C 414.422,75.9239 422.756,65.2572 438.5,60.5 Z"/></g>
<g><path style="opacity:1" fill="#e7e7e7" d="M 577.5,60.5 C 606.795,57.4635 620.128,70.4635 617.5,99.5C 602.496,99.3334 587.496,99.5001 572.5,100C 574.14,105.64 577.807,109.307 583.5,111C 593.623,113.045 603.623,112.545 613.5,109.5C 613.5,114.167 613.5,118.833 613.5,123.5C 602.362,126.382 591.028,127.215 579.5,126C 563.015,121.18 554.349,110.18 553.5,93C 554.106,76.5935 562.106,65.7601 577.5,60.5 Z"/></g>
<g><path style="opacity:1" fill="#e9eaea" d="M 648.5,83.5 C 647.504,96.9898 647.171,110.656 647.5,124.5C 641.833,124.5 636.167,124.5 630.5,124.5C 630.5,103.833 630.5,83.1667 630.5,62.5C 635.5,62.5 640.5,62.5 645.5,62.5C 645.153,65.3409 645.487,67.3409 646.5,68.5C 655.762,60.3975 666.429,58.2309 678.5,62C 685.149,65.3141 689.649,70.4808 692,77.5C 692.5,93.4965 692.667,109.497 692.5,125.5C 686.5,125.5 680.5,125.5 674.5,125.5C 674.667,111.496 674.5,97.496 674,83.5C 668.448,74.7974 661.281,73.2974 652.5,79C 650.959,80.3712 649.625,81.8712 648.5,83.5 Z"/></g>
<g><path style="opacity:1" fill="#f9c801" d="M 292.5,60.5 C 302.903,59.5307 312.903,61.0307 322.5,65C 331.61,71.0456 336.777,79.5456 338,90.5C 338.5,102.829 338.667,115.162 338.5,127.5C 332.167,127.5 325.833,127.5 319.5,127.5C 319.5,126.5 319.5,125.5 319.5,124.5C 301.367,131.424 285.867,127.757 273,113.5C 264.167,96.9475 266.001,81.7808 278.5,68C 282.826,64.6733 287.492,62.1733 292.5,60.5 Z"/></g>
<g><path style="opacity:1" fill="#a7a7a7" d="M 727.5,39.5 C 728.209,38.596 729.209,38.2627 730.5,38.5C 730.5,46.1667 730.5,53.8333 730.5,61.5C 737.167,61.5 743.833,61.5 750.5,61.5C 750.5,66.8333 750.5,72.1667 750.5,77.5C 743.833,77.5 737.167,77.5 730.5,77.5C 736.645,76.5098 742.978,76.1765 749.5,76.5C 749.5,71.8333 749.5,67.1667 749.5,62.5C 742.833,62.5 736.167,62.5 729.5,62.5C 730.132,54.4271 729.465,46.7605 727.5,39.5 Z"/></g>
<g><path style="opacity:1" fill="#f9c801" d="M 338.5,61.5 C 345.09,61.189 351.59,61.5223 358,62.5C 364.194,76.0838 370.194,89.7504 376,103.5C 381.334,89.663 386.168,75.663 390.5,61.5C 397.167,61.5 403.833,61.5 410.5,61.5C 400.409,89.2735 389.242,116.607 377,143.5C 369.331,154.452 358.831,158.452 345.5,155.5C 345.5,150.167 345.5,144.833 345.5,139.5C 357.044,141.78 364.377,137.28 367.5,126C 357.537,104.601 347.87,83.1013 338.5,61.5 Z"/></g>
<g><path style="opacity:1" fill="#e6e7e7" d="M 480.5,61.5 C 486.868,61.1703 493.202,61.5037 499.5,62.5C 504.836,76.1763 510.169,89.8429 515.5,103.5C 521.216,90.0247 526.549,76.358 531.5,62.5C 538.167,61.1667 544.833,61.1667 551.5,62.5C 542.433,83.3745 533.767,104.374 525.5,125.5C 518.833,125.5 512.167,125.5 505.5,125.5C 497.167,104.167 488.833,82.8333 480.5,61.5 Z"/></g>
<g><path style="opacity:1" fill="#b3b4b4" d="M 646.5,68.5 C 645.487,67.3409 645.153,65.3409 645.5,62.5C 640.5,62.5 635.5,62.5 630.5,62.5C 630.5,83.1667 630.5,103.833 630.5,124.5C 636.167,124.5 641.833,124.5 647.5,124.5C 647.171,110.656 647.504,96.9898 648.5,83.5C 648.5,97.5 648.5,111.5 648.5,125.5C 642.167,125.5 635.833,125.5 629.5,125.5C 629.5,104.167 629.5,82.8333 629.5,61.5C 635.167,61.5 640.833,61.5 646.5,61.5C 646.5,63.8333 646.5,66.1667 646.5,68.5 Z"/></g>
<g><path style="opacity:1" fill="#e5e6e6" d="M 116.5,61.5 C 124.928,66.0785 133.262,70.9118 141.5,76C 146.29,80.3114 146.79,85.1447 143,90.5C 138.23,94.467 133.063,97.8004 127.5,100.5C 124.131,102.515 120.798,104.515 117.5,106.5C 115.004,107.58 112.67,108.914 110.5,110.5C 113.54,106.125 114.04,101.459 112,96.5C 107.877,92.5359 103.377,89.2025 98.5,86.5C 103.396,78.3865 108.563,70.3865 114,62.5C 114.671,61.7476 115.504,61.4142 116.5,61.5 Z"/></g>
<g><path style="opacity:1" fill="#2b2a29" d="M 67.5,69.5 C 69.0495,70.4408 70.7162,71.1075 72.5,71.5C 75.2911,73.7349 78.2911,75.7349 81.5,77.5C 84.1932,78.8466 86.8599,80.1799 89.5,81.5C 92.0078,83.9236 95.0078,85.5903 98.5,86.5C 103.377,89.2025 107.877,92.5359 112,96.5C 114.04,101.459 113.54,106.125 110.5,110.5C 107.996,111.584 105.663,112.917 103.5,114.5C 99.7991,116.012 96.4658,118.012 93.5,120.5C 89.1638,122.332 85.1638,124.665 81.5,127.5C 77.6654,129.25 73.9988,131.25 70.5,133.5C 67.8728,134.092 65.2062,134.425 62.5,134.5C 58.1895,133.523 55.5228,130.856 54.5,126.5C 54.5,111.5 54.5,96.5 54.5,81.5C 54.2883,72.7497 58.6216,68.7497 67.5,69.5 Z"/></g>
<g><path style="opacity:1" fill="#302f2e" d="M 440.5,74.5 C 446.105,73.9081 451.439,74.7415 456.5,77C 459.373,79.913 460.706,83.413 460.5,87.5C 451.167,87.5 441.833,87.5 432.5,87.5C 432.377,81.4077 435.043,77.0744 440.5,74.5 Z"/></g>
<g><path style="opacity:1" fill="#2f2e2d" d="M 580.5,74.5 C 585.628,74.1115 590.628,74.6115 595.5,76C 598.949,79.0646 600.616,82.8979 600.5,87.5C 591.167,87.5 581.833,87.5 572.5,87.5C 572.298,85.0108 572.798,82.6775 574,80.5C 576.063,78.2659 578.229,76.2659 580.5,74.5 Z"/></g>
<g><path style="opacity:1" fill="#2d2b28" d="M 193.5,77.5 C 213.157,76.7846 219.657,85.7846 213,104.5C 207.636,110.061 201.136,111.895 193.5,110C 182.022,101.702 180.522,91.8686 189,80.5C 190.652,79.6006 192.152,78.6006 193.5,77.5 Z"/></g>
<g><path style="opacity:1" fill="#2d2b28" d="M 296.5,77.5 C 316.188,76.8594 322.688,85.8594 316,104.5C 310.636,110.061 304.136,111.895 296.5,110C 285.35,102.384 283.516,92.8844 291,81.5C 293.015,80.3034 294.849,78.9701 296.5,77.5 Z"/></g>
<g><path style="opacity:1" fill="#c7a20a" d="M 62.5,66.5 C 64.674,66.7497 66.3406,67.7497 67.5,69.5C 58.6216,68.7497 54.2883,72.7497 54.5,81.5C 53.5386,83.2646 53.2053,85.2646 53.5,87.5C 43.5,87.5 33.5,87.5 23.5,87.5C 23.5,80.8333 23.5,74.1667 23.5,67.5C 36.6774,67.8288 49.6774,67.4955 62.5,66.5 Z"/></g>
<g><path style="opacity:1" fill="#d9af08" d="M 165.5,86.5 C 165.5,108.833 165.5,131.167 165.5,153.5C 171.5,153.5 177.5,153.5 183.5,153.5C 177.355,154.49 171.022,154.823 164.5,154.5C 164.169,131.661 164.503,108.994 165.5,86.5 Z"/></g>
<g><path style="opacity:1" fill="#ab8c0f" d="M 23.5,58.5 C 23.5,61.5 23.5,64.5 23.5,67.5C 23.5,74.1667 23.5,80.8333 23.5,87.5C 33.5,87.5 43.5,87.5 53.5,87.5C 53.5,93.1667 53.5,98.8333 53.5,104.5C 43.1667,104.5 32.8333,104.5 22.5,104.5C 22.5,99.5 22.5,94.5 22.5,89.5C 22.1724,78.9865 22.5058,68.6532 23.5,58.5 Z"/></g>
<g><path style="opacity:1" fill="#4b4222" d="M 130.5,103.5 C 136.548,106.775 141.715,111.109 146,116.5C 146.972,120.368 146.139,123.701 143.5,126.5C 138.694,119.046 134.361,111.379 130.5,103.5 Z"/></g>
<g><path style="opacity:1" fill="#61531f" d="M 127.5,100.5 C 128.167,101.833 129.167,102.833 130.5,103.5C 134.361,111.379 138.694,119.046 143.5,126.5C 140.725,129.605 137.392,131.938 133.5,133.5C 127.422,124.917 122.088,115.917 117.5,106.5C 120.798,104.515 124.131,102.515 127.5,100.5 Z"/></g>
<g><path style="opacity:1" fill="#7a6719" d="M 117.5,106.5 C 122.088,115.917 127.422,124.917 133.5,133.5C 129.37,136.403 125.037,139.07 120.5,141.5C 120.628,139.345 120.128,137.345 119,135.5C 115.667,130.167 112.333,124.833 109,119.5C 107.924,116.921 106.091,115.254 103.5,114.5C 105.663,112.917 107.996,111.584 110.5,110.5C 112.67,108.914 115.004,107.58 117.5,106.5 Z"/></g>
<g><path style="opacity:1" fill="#927914" d="M 22.5,104.5 C 32.8333,104.5 43.1667,104.5 53.5,104.5C 53.5,109.833 53.5,115.167 53.5,120.5C 43.1667,120.5 32.8333,120.5 22.5,120.5C 22.5,115.167 22.5,109.833 22.5,104.5 Z"/></g>
<g><path style="opacity:1" fill="#987d13" d="M 103.5,114.5 C 106.091,115.254 107.924,116.921 109,119.5C 112.333,124.833 115.667,130.167 119,135.5C 120.128,137.345 120.628,139.345 120.5,141.5C 116.673,143.246 113.007,145.246 109.5,147.5C 104.937,138.041 99.6039,129.041 93.5,120.5C 96.4658,118.012 99.7991,116.012 103.5,114.5 Z"/></g>
<g><path style="opacity:1" fill="#b1900e" d="M 93.5,120.5 C 99.6039,129.041 104.937,138.041 109.5,147.5C 106.45,149.692 103.117,151.358 99.5,152.5C 95.0115,144.192 90.0115,136.192 84.5,128.5C 83.675,127.614 82.675,127.281 81.5,127.5C 85.1638,124.665 89.1638,122.332 93.5,120.5 Z"/></g>
<g><path style="opacity:1" fill="#7a6719" d="M 54.5,81.5 C 54.5,96.5 54.5,111.5 54.5,126.5C 53.5206,129.625 53.1872,132.958 53.5,136.5C 43.4473,136.192 33.4473,136.525 23.5,137.5C 22.5046,131.872 22.1712,126.206 22.5,120.5C 32.8333,120.5 43.1667,120.5 53.5,120.5C 53.5,115.167 53.5,109.833 53.5,104.5C 53.5,98.8333 53.5,93.1667 53.5,87.5C 53.2053,85.2646 53.5386,83.2646 54.5,81.5 Z"/></g>
<g><path style="opacity:1" fill="#caa409" d="M 81.5,127.5 C 82.675,127.281 83.675,127.614 84.5,128.5C 90.0115,136.192 95.0115,144.192 99.5,152.5C 95.3699,155.403 91.0366,158.07 86.5,160.5C 85.9778,157.747 85.1445,155.08 84,152.5C 79.9365,146.764 76.2698,140.764 73,134.5C 72.3292,133.748 71.4959,133.414 70.5,133.5C 73.9988,131.25 77.6654,129.25 81.5,127.5 Z"/></g>
<g><path style="opacity:1" fill="#ddb206" d="M 70.5,133.5 C 71.4959,133.414 72.3292,133.748 73,134.5C 76.2698,140.764 79.9365,146.764 84,152.5C 85.1445,155.08 85.9778,157.747 86.5,160.5C 84.4832,161.529 82.4832,162.529 80.5,163.5C 75.7526,152.995 69.7526,143.328 62.5,134.5C 65.2062,134.425 67.8728,134.092 70.5,133.5 Z"/></g>
<g><path style="opacity:1" fill="#f5c501" d="M 54.5,126.5 C 55.5228,130.856 58.1895,133.523 62.5,134.5C 69.7526,143.328 75.7526,152.995 80.5,163.5C 76.2296,166.571 71.563,169.071 66.5,171C 59.8314,171.352 55.6648,168.185 54,161.5C 53.5006,156.177 53.334,150.844 53.5,145.5C 53.5,142.5 53.5,139.5 53.5,136.5C 53.1872,132.958 53.5206,129.625 54.5,126.5 Z"/></g>
<g><path style="opacity:1" fill="#66571d" d="M 22.5,89.5 C 22.5,94.5 22.5,99.5 22.5,104.5C 22.5,109.833 22.5,115.167 22.5,120.5C 22.1712,126.206 22.5046,131.872 23.5,137.5C 33.4473,136.525 43.4473,136.192 53.5,136.5C 53.5,139.5 53.5,142.5 53.5,145.5C 45.806,150.359 37.4727,152.859 28.5,153C 24.4659,150.239 22.2993,146.406 22,141.5C 21.1715,123.995 21.3382,106.662 22.5,89.5 Z"/></g>
</svg>
