<?xml version="1.0" encoding="UTF-8"?>
<svg xmlns="http://www.w3.org/2000/svg" xmlns:xlink="http://www.w3.org/1999/xlink" width="1157px" height="297px" viewBox="0 0 1156 297" version="1.1">
<g id="surface1">
<path style=" stroke:none;fill-rule:evenodd;fill:rgb(16.862745%,16.470588%,16.078431%);fill-opacity:1;" d="M -0.75 -0.75 C 384.582031 -0.75 769.917969 -0.75 1155.25 -0.75 C 1155.25 98.25 1155.25 197.25 1155.25 296.25 C 769.917969 296.25 384.582031 296.25 -0.75 296.25 C -0.75 197.25 -0.75 98.25 -0.75 -0.75 Z M -0.75 -0.75 "/>
<path style=" stroke:none;fill-rule:evenodd;fill:rgb(67.843137%,55.686275%,5.882353%);fill-opacity:1;" d="M 390.582031 44.25 C 381.585938 44.25 372.589844 44.25 363.59375 44.25 C 363.59375 91.75 363.59375 139.25 363.59375 186.75 C 372.589844 186.75 381.585938 186.75 390.582031 186.75 C 381.367188 188.234375 371.871094 188.734375 362.09375 188.25 C 362.09375 139.75 362.09375 91.25 362.09375 42.75 C 371.871094 42.265625 381.367188 42.765625 390.582031 44.25 Z M 390.582031 44.25 "/>
<path style=" stroke:none;fill-rule:evenodd;fill:rgb(99.215686%,80%,0%);fill-opacity:1;" d="M 390.582031 44.25 C 390.582031 91.75 390.582031 139.25 390.582031 186.75 C 381.585938 186.75 372.589844 186.75 363.59375 186.75 C 363.59375 139.25 363.59375 91.75 363.59375 44.25 C 372.589844 44.25 381.585938 44.25 390.582031 44.25 Z M 390.582031 44.25 "/>
<path style=" stroke:none;fill-rule:evenodd;fill:rgb(30.196078%,29.803922%,29.411765%);fill-opacity:1;" d="M 111.703125 54.75 C 109.386719 55.054688 107.386719 56.054688 105.703125 57.75 C 98.164062 69.261719 90.167969 80.261719 81.714844 90.75 C 80.226562 91.007812 79.226562 90.507812 78.714844 89.25 C 78.46875 81.234375 78.71875 73.234375 79.464844 65.25 C 80.707031 55.671875 85.953125 50.171875 95.207031 48.75 C 101.269531 49.546875 106.765625 51.546875 111.703125 54.75 Z M 111.703125 54.75 "/>
<path style=" stroke:none;fill-rule:evenodd;fill:rgb(90.196078%,90.588235%,90.588235%);fill-opacity:1;" d="M 1090.777344 59.25 C 1093.722656 70.140625 1094.722656 81.640625 1093.777344 93.75 C 1103.773438 93.75 1113.769531 93.75 1123.765625 93.75 C 1123.765625 100.75 1123.765625 107.75 1123.765625 114.75 C 1113.984375 114.265625 1104.488281 114.765625 1095.277344 116.25 C 1095.027344 130.757812 1095.277344 145.257812 1096.027344 159.75 C 1097.273438 163 1099.523438 165.25 1102.773438 166.5 C 1110.777344 167.820312 1118.523438 167.070312 1126.011719 164.25 C 1126.761719 171.734375 1127.011719 179.234375 1126.761719 186.75 C 1113.925781 189.625 1100.933594 190.375 1087.78125 189 C 1075.375 184.59375 1068.628906 175.84375 1067.539062 162.75 C 1066.789062 147.257812 1066.539062 131.757812 1066.789062 116.25 C 1061.792969 116.25 1056.792969 116.25 1051.796875 116.25 C 1051.796875 108.25 1051.796875 100.25 1051.796875 92.25 C 1056.792969 92.25 1061.792969 92.25 1066.789062 92.25 C 1066.539062 83.234375 1066.789062 74.234375 1067.539062 65.25 C 1075.003906 62.210938 1082.75 60.210938 1090.777344 59.25 Z M 1090.777344 59.25 "/>
<path style=" stroke:none;fill-rule:evenodd;fill:rgb(40.392157%,40%,39.607843%);fill-opacity:1;" d="M 111.703125 54.75 C 116.214844 56.503906 120.214844 59.003906 123.695312 62.25 C 121.933594 61.921875 120.433594 62.421875 119.199219 63.75 C 112.453125 74.25 105.703125 84.75 98.957031 95.25 C 97.734375 97.234375 95.984375 98.234375 93.710938 98.25 C 89.65625 95.730469 85.660156 93.230469 81.714844 90.75 C 90.167969 80.261719 98.164062 69.261719 105.703125 57.75 C 107.386719 56.054688 109.386719 55.054688 111.703125 54.75 Z M 111.703125 54.75 "/>
<path style=" stroke:none;fill-rule:evenodd;fill:rgb(49.803922%,49.803922%,49.411765%);fill-opacity:1;" d="M 123.695312 62.25 C 128.585938 64.160156 133.082031 66.660156 137.191406 69.75 C 133.578125 70.382812 130.828125 72.382812 128.945312 75.75 C 122.453125 86.476562 115.707031 96.976562 108.703125 107.25 C 106.027344 106.660156 103.53125 105.660156 101.207031 104.25 C 99.46875 101.625 96.96875 100.125 93.710938 99.75 C 93.710938 99.25 93.710938 98.75 93.710938 98.25 C 95.984375 98.234375 97.734375 97.234375 98.957031 95.25 C 105.703125 84.75 112.453125 74.25 119.199219 63.75 C 120.433594 62.421875 121.933594 61.921875 123.695312 62.25 Z M 123.695312 62.25 "/>
<path style=" stroke:none;fill-rule:evenodd;fill:rgb(59.215686%,59.607843%,59.215686%);fill-opacity:1;" d="M 137.191406 69.75 C 140.945312 71.375 144.445312 73.375 147.6875 75.75 C 138.546875 88.882812 130.050781 102.382812 122.195312 116.25 C 117.386719 113.601562 112.886719 110.601562 108.703125 107.25 C 115.707031 96.976562 122.453125 86.476562 128.945312 75.75 C 130.828125 72.382812 133.578125 70.382812 137.191406 69.75 Z M 137.191406 69.75 "/>
<path style=" stroke:none;fill-rule:evenodd;fill:rgb(69.019608%,69.019608%,69.019608%);fill-opacity:1;" d="M 147.6875 75.75 C 153.109375 78.207031 158.109375 81.207031 162.679688 84.75 C 159.066406 85.382812 156.316406 87.382812 154.433594 90.75 C 147.671875 101.292969 140.921875 111.792969 134.191406 122.25 C 130.234375 120.269531 126.234375 118.269531 122.195312 116.25 C 130.050781 102.382812 138.546875 88.882812 147.6875 75.75 Z M 147.6875 75.75 "/>
<path style=" stroke:none;fill-rule:evenodd;fill:rgb(88.235294%,70.980392%,2.352941%);fill-opacity:1;" d="M 78.714844 89.25 C 79.226562 90.507812 80.226562 91.007812 81.714844 90.75 C 85.660156 93.230469 89.65625 95.730469 93.710938 98.25 C 93.710938 98.75 93.710938 99.25 93.710938 99.75 C 74.484375 101.242188 54.992188 101.742188 35.234375 101.25 C 35.234375 96.75 35.234375 92.25 35.234375 87.75 C 37.007812 79.847656 42.003906 76.347656 50.226562 77.25 C 52.726562 77.5 55.226562 77.75 57.726562 78 C 64.523438 82.152344 71.519531 85.902344 78.714844 89.25 Z M 78.714844 89.25 "/>
<path style=" stroke:none;fill-rule:evenodd;fill:rgb(78.431373%,78.823529%,78.823529%);fill-opacity:1;" d="M 162.679688 84.75 C 167.238281 86.519531 171.234375 89.019531 174.675781 92.25 C 173.179688 92.121094 171.933594 92.621094 170.925781 93.75 C 162.773438 105.578125 155.027344 117.578125 147.6875 129.75 C 142.449219 128.386719 137.953125 125.886719 134.191406 122.25 C 140.921875 111.792969 147.671875 101.292969 154.433594 90.75 C 156.316406 87.382812 159.066406 85.382812 162.679688 84.75 Z M 162.679688 84.75 "/>
<path style=" stroke:none;fill-rule:evenodd;fill:rgb(98.039216%,78.823529%,0.392157%);fill-opacity:1;" d="M 275.132812 230.25 C 266.136719 230.25 257.140625 230.25 248.144531 230.25 C 248.144531 196.75 248.144531 163.25 248.144531 129.75 C 252.199219 108.941406 264.695312 96.191406 285.625 91.5 C 314.078125 86.292969 335.316406 96.042969 349.347656 120.75 C 359.394531 156.925781 346.648438 180.175781 311.117188 190.5 C 299.003906 191.527344 287.011719 190.777344 275.132812 188.25 C 275.132812 202.25 275.132812 216.25 275.132812 230.25 Z M 275.132812 230.25 "/>
<path style=" stroke:none;fill-rule:evenodd;fill:rgb(90.196078%,90.588235%,90.588235%);fill-opacity:1;" d="M 657.464844 90.75 C 686.265625 85.765625 705.507812 96.765625 715.191406 123.75 C 716.222656 132.304688 715.972656 140.804688 714.441406 149.25 C 692.449219 149.25 670.460938 149.25 648.46875 149.25 C 650.539062 158.074219 656.035156 163.824219 664.960938 166.5 C 679.875 169.984375 694.367188 168.734375 708.445312 162.75 C 709.933594 170.183594 710.433594 177.683594 709.941406 185.25 C 692.742188 189.589844 675.246094 190.839844 657.464844 189 C 632.40625 181.601562 619.910156 164.851562 619.980469 138.75 C 621.363281 113.886719 633.859375 97.886719 657.464844 90.75 Z M 657.464844 90.75 "/>
<path style=" stroke:none;fill-rule:evenodd;fill:rgb(90.588235%,90.588235%,90.588235%);fill-opacity:1;" d="M 865.875 90.75 C 909.800781 86.195312 929.789062 105.695312 925.847656 149.25 C 903.351562 149 880.863281 149.25 858.378906 150 C 860.835938 158.460938 866.335938 163.960938 874.871094 166.5 C 890.050781 169.566406 905.042969 168.816406 919.851562 164.25 C 919.851562 171.25 919.851562 178.25 919.851562 185.25 C 903.152344 189.574219 886.160156 190.824219 868.875 189 C 844.15625 181.769531 831.164062 165.269531 829.890625 139.5 C 830.800781 114.890625 842.792969 98.640625 865.875 90.75 Z M 865.875 90.75 "/>
<path style=" stroke:none;fill-rule:evenodd;fill:rgb(91.372549%,91.764706%,91.764706%);fill-opacity:1;" d="M 972.328125 125.25 C 970.835938 145.484375 970.335938 165.984375 970.832031 186.75 C 962.332031 186.75 953.839844 186.75 945.339844 186.75 C 945.339844 155.75 945.339844 124.75 945.339844 93.75 C 952.835938 93.75 960.335938 93.75 967.832031 93.75 C 967.3125 98.011719 967.8125 101.011719 969.332031 102.75 C 983.21875 90.597656 999.210938 87.347656 1017.308594 93 C 1027.277344 97.972656 1034.027344 105.722656 1037.550781 116.25 C 1038.300781 140.246094 1038.550781 164.246094 1038.300781 188.25 C 1029.304688 188.25 1020.308594 188.25 1011.3125 188.25 C 1011.5625 167.242188 1011.3125 146.242188 1010.5625 125.25 C 1002.238281 112.195312 991.492188 109.945312 978.328125 118.5 C 976.015625 120.558594 974.015625 122.808594 972.328125 125.25 Z M 972.328125 125.25 "/>
<path style=" stroke:none;fill-rule:evenodd;fill:rgb(97.647059%,78.431373%,0.392157%);fill-opacity:1;" d="M 438.558594 90.75 C 454.15625 89.296875 469.152344 91.546875 483.539062 97.5 C 497.199219 106.570312 504.945312 119.320312 506.78125 135.75 C 507.53125 154.242188 507.78125 172.742188 507.53125 191.25 C 498.035156 191.25 488.539062 191.25 479.042969 191.25 C 479.042969 189.75 479.042969 188.25 479.042969 186.75 C 451.855469 197.136719 428.613281 191.636719 409.324219 170.25 C 396.078125 145.421875 398.828125 122.671875 417.570312 102 C 424.054688 97.011719 431.050781 93.261719 438.558594 90.75 Z M 438.558594 90.75 "/>
<path style=" stroke:none;fill-rule:evenodd;fill:rgb(65.490196%,65.490196%,65.490196%);fill-opacity:1;" d="M 1090.777344 59.25 C 1091.839844 57.894531 1093.339844 57.394531 1095.277344 57.75 C 1095.277344 69.25 1095.277344 80.75 1095.277344 92.25 C 1105.273438 92.25 1115.265625 92.25 1125.261719 92.25 C 1125.261719 100.25 1125.261719 108.25 1125.261719 116.25 C 1115.265625 116.25 1105.273438 116.25 1095.277344 116.25 C 1104.488281 114.765625 1113.984375 114.265625 1123.765625 114.75 C 1123.765625 107.75 1123.765625 100.75 1123.765625 93.75 C 1113.769531 93.75 1103.773438 93.75 1093.777344 93.75 C 1094.722656 81.640625 1093.722656 70.140625 1090.777344 59.25 Z M 1090.777344 59.25 "/>
<path style=" stroke:none;fill-rule:evenodd;fill:rgb(97.647059%,78.431373%,0.392157%);fill-opacity:1;" d="M 507.53125 92.25 C 517.410156 91.785156 527.15625 92.285156 536.769531 93.75 C 546.054688 114.125 555.050781 134.625 563.757812 155.25 C 571.753906 134.496094 579 113.496094 585.496094 92.25 C 595.492188 92.25 605.488281 92.25 615.484375 92.25 C 600.355469 133.910156 583.609375 174.910156 565.253906 215.25 C 553.757812 231.679688 538.015625 237.679688 518.027344 233.25 C 518.027344 225.25 518.027344 217.25 518.027344 209.25 C 535.335938 212.671875 546.328125 205.921875 551.011719 189 C 536.074219 156.902344 521.578125 124.652344 507.53125 92.25 Z M 507.53125 92.25 "/>
<path style=" stroke:none;fill-rule:evenodd;fill:rgb(90.196078%,90.588235%,90.588235%);fill-opacity:1;" d="M 720.4375 92.25 C 729.984375 91.753906 739.484375 92.253906 748.925781 93.75 C 756.925781 114.265625 764.921875 134.765625 772.914062 155.25 C 781.484375 135.035156 789.480469 114.535156 796.90625 93.75 C 806.902344 91.75 816.894531 91.75 826.890625 93.75 C 813.296875 125.0625 800.304688 156.5625 787.910156 188.25 C 777.914062 188.25 767.917969 188.25 757.921875 188.25 C 745.429688 156.25 732.933594 124.25 720.4375 92.25 Z M 720.4375 92.25 "/>
<path style=" stroke:none;fill-rule:evenodd;fill:rgb(70.196078%,70.588235%,70.588235%);fill-opacity:1;" d="M 969.332031 102.75 C 967.8125 101.011719 967.3125 98.011719 967.832031 93.75 C 960.335938 93.75 952.835938 93.75 945.339844 93.75 C 945.339844 124.75 945.339844 155.75 945.339844 186.75 C 953.839844 186.75 962.332031 186.75 970.832031 186.75 C 970.335938 165.984375 970.835938 145.484375 972.328125 125.25 C 972.328125 146.25 972.328125 167.25 972.328125 188.25 C 962.835938 188.25 953.335938 188.25 943.839844 188.25 C 943.839844 156.25 943.839844 124.25 943.839844 92.25 C 952.339844 92.25 960.832031 92.25 969.332031 92.25 C 969.332031 95.75 969.332031 99.25 969.332031 102.75 Z M 969.332031 102.75 "/>
<path style=" stroke:none;fill-rule:evenodd;fill:rgb(89.803922%,90.196078%,90.196078%);fill-opacity:1;" d="M 174.675781 92.25 C 187.3125 99.117188 199.804688 106.367188 212.160156 114 C 219.339844 120.46875 220.089844 127.71875 214.40625 135.75 C 207.253906 141.699219 199.507812 146.699219 191.167969 150.75 C 186.117188 153.773438 181.117188 156.773438 176.171875 159.75 C 172.429688 161.371094 168.933594 163.371094 165.679688 165.75 C 170.238281 159.1875 170.984375 152.1875 167.925781 144.75 C 161.746094 138.804688 155 133.804688 147.6875 129.75 C 155.027344 117.578125 162.773438 105.578125 170.925781 93.75 C 171.933594 92.621094 173.179688 92.121094 174.675781 92.25 Z M 174.675781 92.25 "/>
<path style=" stroke:none;fill-rule:evenodd;fill:rgb(16.862745%,16.470588%,16.078431%);fill-opacity:1;" d="M 101.207031 104.25 C 103.53125 105.660156 106.027344 106.660156 108.703125 107.25 C 112.886719 110.601562 117.386719 113.601562 122.195312 116.25 C 126.234375 118.269531 130.234375 120.269531 134.191406 122.25 C 137.953125 125.886719 142.449219 128.386719 147.6875 129.75 C 155 133.804688 161.746094 138.804688 167.925781 144.75 C 170.984375 152.1875 170.238281 159.1875 165.679688 165.75 C 161.925781 167.375 158.425781 169.375 155.183594 171.75 C 149.632812 174.019531 144.636719 177.019531 140.1875 180.75 C 133.6875 183.496094 127.691406 186.996094 122.195312 191.25 C 116.449219 193.875 110.949219 196.875 105.703125 200.25 C 101.765625 201.136719 97.765625 201.636719 93.710938 201.75 C 87.246094 200.285156 83.25 196.285156 81.714844 189.75 C 81.714844 167.25 81.714844 144.75 81.714844 122.25 C 81.398438 109.125 87.894531 103.125 101.207031 104.25 Z M 101.207031 104.25 "/>
<path style=" stroke:none;fill-rule:evenodd;fill:rgb(18.823529%,18.431373%,18.039216%);fill-opacity:1;" d="M 660.464844 111.75 C 668.867188 110.863281 676.867188 112.113281 684.453125 115.5 C 688.761719 119.871094 690.761719 125.121094 690.453125 131.25 C 676.457031 131.25 662.464844 131.25 648.46875 131.25 C 648.285156 122.113281 652.28125 115.613281 660.464844 111.75 Z M 660.464844 111.75 "/>
<path style=" stroke:none;fill-rule:evenodd;fill:rgb(18.431373%,18.039216%,17.647059%);fill-opacity:1;" d="M 870.375 111.75 C 878.0625 111.167969 885.558594 111.917969 892.863281 114 C 898.035156 118.597656 900.535156 124.347656 900.359375 131.25 C 886.367188 131.25 872.371094 131.25 858.378906 131.25 C 858.074219 127.515625 858.824219 124.015625 860.628906 120.75 C 863.722656 117.398438 866.96875 114.398438 870.375 111.75 Z M 870.375 111.75 "/>
<path style=" stroke:none;fill-rule:evenodd;fill:rgb(17.647059%,16.862745%,15.686275%);fill-opacity:1;" d="M 290.125 116.25 C 319.597656 115.175781 329.34375 128.675781 319.363281 156.75 C 311.320312 165.089844 301.574219 167.84375 290.125 165 C 272.914062 152.554688 270.664062 137.804688 283.378906 120.75 C 285.855469 119.402344 288.101562 117.902344 290.125 116.25 Z M 290.125 116.25 "/>
<path style=" stroke:none;fill-rule:evenodd;fill:rgb(17.647059%,16.862745%,15.686275%);fill-opacity:1;" d="M 444.558594 116.25 C 474.078125 115.289062 483.824219 128.789062 473.796875 156.75 C 465.753906 165.089844 456.007812 167.84375 444.558594 165 C 427.839844 153.574219 425.089844 139.328125 436.3125 122.25 C 439.332031 120.457031 442.082031 118.457031 444.558594 116.25 Z M 444.558594 116.25 "/>
<path style=" stroke:none;fill-rule:evenodd;fill:rgb(78.039216%,63.529412%,3.921569%);fill-opacity:1;" d="M 93.710938 99.75 C 96.96875 100.125 99.46875 101.625 101.207031 104.25 C 87.894531 103.125 81.398438 109.125 81.714844 122.25 C 80.273438 124.898438 79.773438 127.898438 80.214844 131.25 C 65.222656 131.25 50.226562 131.25 35.234375 131.25 C 35.234375 121.25 35.234375 111.25 35.234375 101.25 C 54.992188 101.742188 74.484375 101.242188 93.710938 99.75 Z M 93.710938 99.75 "/>
<path style=" stroke:none;fill-rule:evenodd;fill:rgb(85.098039%,68.627451%,3.137255%);fill-opacity:1;" d="M 248.144531 129.75 C 248.144531 163.25 248.144531 196.75 248.144531 230.25 C 257.140625 230.25 266.136719 230.25 275.132812 230.25 C 265.917969 231.734375 256.421875 232.234375 246.644531 231.75 C 246.148438 197.492188 246.648438 163.492188 248.144531 129.75 Z M 248.144531 129.75 "/>
<path style=" stroke:none;fill-rule:evenodd;fill:rgb(67.058824%,54.901961%,5.882353%);fill-opacity:1;" d="M 35.234375 87.75 C 35.234375 92.25 35.234375 96.75 35.234375 101.25 C 35.234375 111.25 35.234375 121.25 35.234375 131.25 C 50.226562 131.25 65.222656 131.25 80.214844 131.25 C 80.214844 139.75 80.214844 148.25 80.214844 156.75 C 64.722656 156.75 49.230469 156.75 33.734375 156.75 C 33.734375 149.25 33.734375 141.75 33.734375 134.25 C 33.246094 118.480469 33.742188 102.980469 35.234375 87.75 Z M 35.234375 87.75 "/>
<path style=" stroke:none;fill-rule:evenodd;fill:rgb(29.411765%,25.882353%,13.333333%);fill-opacity:1;" d="M 195.664062 155.25 C 204.734375 160.164062 212.480469 166.664062 218.90625 174.75 C 220.363281 180.550781 219.113281 185.550781 215.15625 189.75 C 207.949219 178.570312 201.453125 167.070312 195.664062 155.25 Z M 195.664062 155.25 "/>
<path style=" stroke:none;fill-rule:evenodd;fill:rgb(38.039216%,32.54902%,12.156863%);fill-opacity:1;" d="M 191.167969 150.75 C 192.167969 152.75 193.667969 154.25 195.664062 155.25 C 201.453125 167.070312 207.949219 178.570312 215.15625 189.75 C 210.996094 194.40625 206 197.90625 200.164062 200.25 C 191.050781 187.375 183.054688 173.875 176.171875 159.75 C 181.117188 156.773438 186.117188 153.773438 191.167969 150.75 Z M 191.167969 150.75 "/>
<path style=" stroke:none;fill-rule:evenodd;fill:rgb(47.843137%,40.392157%,9.803922%);fill-opacity:1;" d="M 176.171875 159.75 C 183.054688 173.875 191.050781 187.375 200.164062 200.25 C 193.972656 204.605469 187.472656 208.605469 180.671875 212.25 C 180.863281 209.015625 180.113281 206.015625 178.421875 203.25 C 173.425781 195.25 168.425781 187.25 163.429688 179.25 C 161.816406 175.382812 159.066406 172.882812 155.183594 171.75 C 158.425781 169.375 161.925781 167.375 165.679688 165.75 C 168.933594 163.371094 172.429688 161.371094 176.171875 159.75 Z M 176.171875 159.75 "/>
<path style=" stroke:none;fill-rule:evenodd;fill:rgb(57.254902%,47.45098%,7.843137%);fill-opacity:1;" d="M 33.734375 156.75 C 49.230469 156.75 64.722656 156.75 80.214844 156.75 C 80.214844 164.75 80.214844 172.75 80.214844 180.75 C 64.722656 180.75 49.230469 180.75 33.734375 180.75 C 33.734375 172.75 33.734375 164.75 33.734375 156.75 Z M 33.734375 156.75 "/>
<path style=" stroke:none;fill-rule:evenodd;fill:rgb(59.607843%,49.019608%,7.45098%);fill-opacity:1;" d="M 155.183594 171.75 C 159.066406 172.882812 161.816406 175.382812 163.429688 179.25 C 168.425781 187.25 173.425781 195.25 178.421875 203.25 C 180.113281 206.015625 180.863281 209.015625 180.671875 212.25 C 174.933594 214.867188 169.4375 217.867188 164.179688 221.25 C 157.335938 207.0625 149.339844 193.5625 140.1875 180.75 C 144.636719 177.019531 149.632812 174.019531 155.183594 171.75 Z M 155.183594 171.75 "/>
<path style=" stroke:none;fill-rule:evenodd;fill:rgb(69.411765%,56.470588%,5.490196%);fill-opacity:1;" d="M 140.1875 180.75 C 149.339844 193.5625 157.335938 207.0625 164.179688 221.25 C 159.605469 224.539062 154.609375 227.035156 149.183594 228.75 C 142.457031 216.289062 134.957031 204.289062 126.695312 192.75 C 125.457031 191.421875 123.957031 190.921875 122.195312 191.25 C 127.691406 186.996094 133.6875 183.496094 140.1875 180.75 Z M 140.1875 180.75 "/>
<path style=" stroke:none;fill-rule:evenodd;fill:rgb(47.843137%,40.392157%,9.803922%);fill-opacity:1;" d="M 81.714844 122.25 C 81.714844 144.75 81.714844 167.25 81.714844 189.75 C 80.246094 194.4375 79.746094 199.4375 80.214844 204.75 C 65.144531 204.289062 50.148438 204.789062 35.234375 206.25 C 33.742188 197.808594 33.242188 189.308594 33.734375 180.75 C 49.230469 180.75 64.722656 180.75 80.214844 180.75 C 80.214844 172.75 80.214844 164.75 80.214844 156.75 C 80.214844 148.25 80.214844 139.75 80.214844 131.25 C 79.773438 127.898438 80.273438 124.898438 81.714844 122.25 Z M 81.714844 122.25 "/>
<path style=" stroke:none;fill-rule:evenodd;fill:rgb(79.215686%,64.313725%,3.529412%);fill-opacity:1;" d="M 122.195312 191.25 C 123.957031 190.921875 125.457031 191.421875 126.695312 192.75 C 134.957031 204.289062 142.457031 216.289062 149.183594 228.75 C 142.992188 233.105469 136.496094 237.105469 129.695312 240.75 C 128.910156 236.621094 127.660156 232.621094 125.945312 228.75 C 119.851562 220.144531 114.355469 211.144531 109.453125 201.75 C 108.445312 200.621094 107.199219 200.121094 105.703125 200.25 C 110.949219 196.875 116.449219 193.875 122.195312 191.25 Z M 122.195312 191.25 "/>
<path style=" stroke:none;fill-rule:evenodd;fill:rgb(86.666667%,69.803922%,2.352941%);fill-opacity:1;" d="M 105.703125 200.25 C 107.199219 200.121094 108.445312 200.621094 109.453125 201.75 C 114.355469 211.144531 119.851562 220.144531 125.945312 228.75 C 127.660156 232.621094 128.910156 236.621094 129.695312 240.75 C 126.671875 242.292969 123.671875 243.792969 120.699219 245.25 C 113.578125 229.492188 104.582031 214.992188 93.710938 201.75 C 97.765625 201.636719 101.765625 201.136719 105.703125 200.25 Z M 105.703125 200.25 "/>
<path style=" stroke:none;fill-rule:evenodd;fill:rgb(96.078431%,77.254902%,0.392157%);fill-opacity:1;" d="M 81.714844 189.75 C 83.25 196.285156 87.246094 200.285156 93.710938 201.75 C 104.582031 214.992188 113.578125 229.492188 120.699219 245.25 C 114.296875 249.855469 107.296875 253.605469 99.707031 256.5 C 89.707031 257.027344 83.460938 252.277344 80.964844 242.25 C 80.214844 234.265625 79.964844 226.265625 80.214844 218.25 C 80.214844 213.75 80.214844 209.25 80.214844 204.75 C 79.746094 199.4375 80.246094 194.4375 81.714844 189.75 Z M 81.714844 189.75 "/>
<path style=" stroke:none;fill-rule:evenodd;fill:rgb(40%,34.117647%,11.372549%);fill-opacity:1;" d="M 33.734375 134.25 C 33.734375 141.75 33.734375 149.25 33.734375 156.75 C 33.734375 164.75 33.734375 172.75 33.734375 180.75 C 33.242188 189.308594 33.742188 197.808594 35.234375 206.25 C 50.148438 204.789062 65.144531 204.289062 80.214844 204.75 C 80.214844 209.25 80.214844 213.75 80.214844 218.25 C 68.679688 225.539062 56.183594 229.289062 42.730469 229.5 C 36.683594 225.359375 33.433594 219.609375 32.984375 212.25 C 31.742188 185.992188 31.992188 159.992188 33.734375 134.25 Z M 33.734375 134.25 "/>
</g>
</svg>
